<svg width="84" height="85" viewBox="0 0 84 85" fill="none" xmlns="http://www.w3.org/2000/svg">
<path fill-rule="evenodd" clip-rule="evenodd" d="M34.2692 0.413051C19.2505 3.09874 5.80054 15.4064 1.21716 30.6576C-0.405718 36.0577 -0.405718 48.0508 1.21716 53.4508C5.38179 67.3084 16.7458 78.6724 30.6034 82.8371C36.0034 84.4599 47.9966 84.4599 53.3966 82.8371C67.2542 78.6724 78.6182 67.3084 82.7828 53.4508C84.4057 48.0508 84.4057 36.0577 82.7828 30.6576C78.6573 16.9303 67.2092 5.40085 53.7222 1.38925C49.3361 0.0848297 39.0043 -0.433552 34.2692 0.413051ZM32.9452 17.1224C35.4362 18.5935 35.3607 20.3401 32.6528 23.8887C29.4937 28.028 27.904 31.445 27.0008 36.0362C26.3079 39.558 26.3593 40.6743 27.4 44.6872C28.2342 47.9036 28.399 49.6053 27.9451 50.3249C27.4684 51.0803 18.6429 55.0789 17.4518 55.0789C16.6957 55.0789 15.304 47.2393 15.3209 43.0754C15.345 37.0625 16.5361 32.9858 19.8945 27.4217C22.2494 23.5214 29.1284 16.0049 30.3436 16.0049C30.7343 16.0049 31.9046 16.5076 32.9452 17.1224ZM54.436 17.3516C55.476 18.0927 56.3271 19.1386 56.3271 19.6772C56.3271 20.2151 54.9739 22.5524 53.3197 24.8701C50.1547 29.3057 47.8611 35.37 47.8611 39.3015C47.8611 40.5896 48.3365 43.3365 48.9168 45.4061C49.4977 47.4757 49.8181 49.5727 49.6292 50.0651C49.4397 50.558 47.0054 51.8898 44.2188 53.0249C40.3341 54.6074 39.0284 54.8972 38.6221 54.2694C37.3248 52.2649 36.5134 47.8378 36.5629 43.0311C36.6241 37.1263 38.1727 32.2349 41.774 26.5711C44.321 22.5661 50.4875 16.0049 51.7047 16.0049C52.1664 16.0049 53.3953 16.6112 54.436 17.3516Z" fill="black"/>
</svg>
